# xmcd
# 
# Track frame offsets:
#     150
#     20775
#     36600
#     57450
#     71400
#     86700
#     104400
#     117750
#     150900
#     169050
#     186000
#     199200
#     215100
#     238650
#     264000
# 
# Disc length: 4075
# 
# Revision: 0
# Processed by: cddbd v1.5.2PL0 Copyright (c) Steve Scherf et al.
# Submitted via: fre:ac v1.1beta1pre4
# 
DISCID=d50fe90f
DTITLE=Two Blue Dudes - Rough Cut!
DYEAR=2008
DGENRE=Blues
TTITLE0=Cheque Book
TTITLE1=Starlight
TTITLE2=Hungry
TTITLE3=Alright, OK
TTITLE4=Unction Junction
TTITLE5=Key To The Highway
TTITLE6=Bye Bye Johnny
TTITLE7=Flame
TTITLE8=Rock Me
TTITLE9=Sunny Afternoon
TTITLE10=Hip Bone
TTITLE11=Back To The USSR
TTITLE12=Roadhound
TTITLE13=Alabama Prayer
TTITLE14=Red House
EXTD=
EXTT0=
EXTT1=
EXTT2=
EXTT3=
EXTT4=
EXTT5=
EXTT6=
EXTT7=
EXTT8=
EXTT9=
EXTT10=
EXTT11=
EXTT12=
EXTT13=
EXTT14=
PLAYORDER=
